<?xml version="1.0" encoding="UTF-8" standalone="no"?>
<svg
   xmlns:dc="http://purl.org/dc/elements/1.1/"
   xmlns:cc="http://creativecommons.org/ns#"
   xmlns:rdf="http://www.w3.org/1999/02/22-rdf-syntax-ns#"
   xmlns:svg="http://www.w3.org/2000/svg"
   xmlns="http://www.w3.org/2000/svg"
   xmlns:sodipodi="http://sodipodi.sourceforge.net/DTD/sodipodi-0.dtd"
   xmlns:inkscape="http://www.inkscape.org/namespaces/inkscape"
   viewBox="0 0 791.61071 583.55762"
   height="583.55762"
   width="791.61072"
   xml:space="preserve"
   id="svg2"
   version="1.1"
   inkscape:version="0.91 r13725"
   sodipodi:docname="work-in-progress.svg"><sodipodi:namedview
     pagecolor="#ffffff"
     bordercolor="#666666"
     borderopacity="1"
     objecttolerance="10"
     gridtolerance="10"
     guidetolerance="10"
     inkscape:pageopacity="0"
     inkscape:pageshadow="2"
     inkscape:window-width="1916"
     inkscape:window-height="1035"
     id="namedview63"
     showgrid="false"
     fit-margin-top="0"
     fit-margin-left="0"
     fit-margin-right="0"
     fit-margin-bottom="0"
     inkscape:zoom="0.76508705"
     inkscape:cx="583.90659"
     inkscape:cy="205.95293"
     inkscape:window-x="4"
     inkscape:window-y="1"
     inkscape:window-maximized="1"
     inkscape:current-layer="g4275" /><metadata
     id="metadata8"><rdf:RDF><cc:Work
         rdf:about=""><dc:format>image/svg+xml</dc:format><dc:type
           rdf:resource="http://purl.org/dc/dcmitype/StillImage" /><dc:title></dc:title><cc:license
           rdf:resource="http://creativecommons.org/publicdomain/zero/1.0/" /></cc:Work><cc:License
         rdf:about="http://creativecommons.org/publicdomain/zero/1.0/"><cc:permits
           rdf:resource="http://creativecommons.org/ns#Reproduction" /><cc:permits
           rdf:resource="http://creativecommons.org/ns#Distribution" /><cc:permits
           rdf:resource="http://creativecommons.org/ns#DerivativeWorks" /></cc:License></rdf:RDF></metadata><defs
     id="defs6" /><g
     transform="matrix(1.3333333,0,0,-1.3333333,60.977507,562.4054)"
     id="g10"><g
       transform="scale(0.1,0.1)"
       id="g12"><g
         id="g4202"><g
           id="g4275"
           transform="matrix(2,0,0,2,-2511.209,-2029.6996)"><g
             id="g4305"><path
               inkscape:connector-curvature="0"
               style="fill:#e6e6e6;fill-opacity:1;fill-rule:evenodd;stroke:#9f9687;stroke-width:1.60000002;stroke-miterlimit:4;stroke-dasharray:none;stroke-opacity:1"
               d="m 191.66992,381.64453 0,107.9375 -47.16406,0 0,28.75195 109.10156,0 0,-28.75195 -34.36719,0 0,-107.9375 -27.57031,0 z m 252.43164,0 0,107.9375 -47.16211,0 0,28.75195 109.09766,0 0,-28.75195 -34.36719,0 0,-107.9375 -27.56836,0 z"
               transform="matrix(7.5000002,0,0,-7.5000002,0,5284.51)"
               id="path102" /><path
               inkscape:connector-curvature="0"
               d="m 1440.9694,2267.6383 199.586,0 0,154.5433 -199.586,0 0,-154.5433"
               style="fill:#cccccc;fill-opacity:1;fill-rule:evenodd;stroke:#cccccc;stroke-width:0.99525535;stroke-opacity:1"
               id="path110" /><path
               inkscape:connector-curvature="0"
               d="m 3333.8295,2267.257 199.5598,0 0,154.5385 -199.5598,0 0,-154.5385"
               style="fill:#cccccc;fill-opacity:1;fill-rule:evenodd;stroke:#cccccc;stroke-opacity:1"
               id="path88" /><rect
               transform="scale(1,-1)"
               y="-3108.8701"
               x="1041.9388"
               height="695.51874"
               width="2938.5403"
               id="rect4200"
               style="opacity:1;fill:#ececec;fill-opacity:1;fill-rule:evenodd;stroke:#bd8b38;stroke-width:30;stroke-linecap:round;stroke-linejoin:round;stroke-miterlimit:4;stroke-dasharray:none;stroke-opacity:1" /><path
               inkscape:connector-curvature="0"
               d="m 3716.92,2422.1792 254.39,0 0,684.2879 -254.39,0 0,-684.2879"
               style="fill:#f2ae3d;fill-opacity:1;fill-rule:evenodd;stroke:none"
               id="path90" /><path
               inkscape:connector-curvature="0"
               d="m 1052.53,2422.1792 2743.87,0 0,684.2879 -2743.87,0 0,-684.2879"
               style="fill:#f8a10e;fill-opacity:1;fill-rule:evenodd;stroke:none"
               id="path92" /><path
               inkscape:connector-curvature="0"
               d="m 1497.93,3106.4671 290.44,0 -281.21,-684.2879 -290.45,0 281.22,684.2879"
               style="fill:#503627;fill-opacity:1;fill-rule:evenodd;stroke:none"
               id="path94" /><path
               inkscape:connector-curvature="0"
               d="m 2112.55,3106.4671 c 96.82,0 193.63,0 290.45,0 -93.75,-228.1 -187.49,-456.2 -281.22,-684.2879 -96.82,0 -193.63,0 -290.45,0 93.75,228.0879 187.48,456.1879 281.22,684.2879"
               style="fill:#503627;fill-opacity:1;fill-rule:evenodd;stroke:none"
               id="path96" /><path
               inkscape:connector-curvature="0"
               d="m 2727.16,3106.4671 c 96.82,0 193.64,0 290.44,0 -93.74,-228.1 -187.47,-456.2 -281.21,-684.2879 -96.81,0 -193.63,0 -290.44,0 93.74,228.0879 187.48,456.1879 281.21,684.2879"
               style="fill:#503627;fill-opacity:1;fill-rule:evenodd;stroke:none"
               id="path98" /><path
               inkscape:connector-curvature="0"
               d="m 3341.78,3106.4671 290.45,0 -281.23,-684.2879 -290.44,0 281.22,684.2879"
               style="fill:#503627;fill-opacity:1;fill-rule:evenodd;stroke:none"
               id="path100" /></g><g
             transform="translate(-421.12252,-78.664209)"
             id="g4247"><path
               style="fill:#b34134;fill-opacity:1;fill-rule:evenodd;stroke:none;stroke-width:7.5px;stroke-linecap:butt;stroke-linejoin:miter;stroke-opacity:1"
               d="m 2326.2724,2151.6001 -357.0962,-1015.9745 -110.2757,10e-5 -1.2182,-121.4325 957.2134,1.1372 -0.2727,120.2952 -114.5983,0 -364.7193,1042.0023 z"
               id="path4245"
               inkscape:connector-curvature="0"
               sodipodi:nodetypes="ccccccccc" /><g
               id="g4191"
               transform="translate(291.58684,-40.498173)"><g
                 id="g4237"
                 transform="translate(-87.503796,-323.09094)"><path
                   inkscape:connector-curvature="0"
                   d="m 2130.7994,2503.7374 188.0426,-531.4336 188.0343,-531.4093 -752.1538,0 188.0344,531.4093 188.0425,531.4336"
                   style="fill:#e83421;fill-opacity:1;fill-rule:evenodd;stroke:none"
                   id="path116" /><path
                   inkscape:connector-curvature="0"
                   d="m 2130.7994,2503.7374 105.7345,-1012.8488 252.6516,0 z"
                   style="fill:#d53422;fill-opacity:1;fill-rule:evenodd;stroke:none"
                   id="path118" /><path
                   inkscape:connector-curvature="0"
                   d="m 2357.9734,1861.689 69.0154,-195.0331 -592.3787,0 69.0154,195.0331 z m -133.9609,378.6278 69.0072,-195.0331 -324.4405,0 69.0154,195.0331 186.4179,0 0,0"
                   style="fill:#ffffff;fill-opacity:1;fill-rule:evenodd;stroke:none"
                   id="path120" /><path
                   inkscape:connector-curvature="0"
                   d="m 2197.8291,1861.689 20.3493,-195.0331 208.8104,0 -69.0154,195.0331 z m 26.1834,378.6278 69.0072,-195.0331 -114.3583,0 -20.3576,195.0331 65.7087,0 0,0"
                   style="fill:#feece0;fill-opacity:1;fill-rule:evenodd;stroke:none"
                   id="path122" /><path
                   inkscape:connector-curvature="0"
                   d="m 1661.5013,1390.9124 938.6045,0 0,99.9762 -938.6045,0 0,-99.9762"
                   style="fill:#f15030;fill-opacity:1;fill-rule:evenodd;stroke:none"
                   id="path124" /></g></g></g><g
             id="g4257"
             transform="translate(703.87751,-78.664209)"><path
               sodipodi:nodetypes="ccccccccc"
               inkscape:connector-curvature="0"
               id="path4259"
               d="m 2326.2724,2151.6001 -357.0962,-1015.9745 -110.2757,10e-5 -1.2182,-121.4325 957.2134,1.1372 -0.2727,120.2952 -114.5983,0 -364.7193,1042.0023 z"
               style="fill:#b34134;fill-opacity:1;fill-rule:evenodd;stroke:none;stroke-width:7.5px;stroke-linecap:butt;stroke-linejoin:miter;stroke-opacity:1" /><g
               transform="translate(291.58684,-40.498173)"
               id="g4261"><g
                 transform="translate(-87.503796,-323.09094)"
                 id="g4263"><path
                   id="path4265"
                   style="fill:#e83421;fill-opacity:1;fill-rule:evenodd;stroke:none"
                   d="m 2130.7994,2503.7374 188.0426,-531.4336 188.0343,-531.4093 -752.1538,0 188.0344,531.4093 188.0425,531.4336"
                   inkscape:connector-curvature="0" /><path
                   id="path4267"
                   style="fill:#d53422;fill-opacity:1;fill-rule:evenodd;stroke:none"
                   d="m 2130.7994,2503.7374 105.7345,-1012.8488 252.6516,0 z"
                   inkscape:connector-curvature="0" /><path
                   id="path4269"
                   style="fill:#ffffff;fill-opacity:1;fill-rule:evenodd;stroke:none"
                   d="m 2357.9734,1861.689 69.0154,-195.0331 -592.3787,0 69.0154,195.0331 z m -133.9609,378.6278 69.0072,-195.0331 -324.4405,0 69.0154,195.0331 186.4179,0 0,0"
                   inkscape:connector-curvature="0" /><path
                   id="path4271"
                   style="fill:#feece0;fill-opacity:1;fill-rule:evenodd;stroke:none"
                   d="m 2197.8291,1861.689 20.3493,-195.0331 208.8104,0 -69.0154,195.0331 z m 26.1834,378.6278 69.0072,-195.0331 -114.3583,0 -20.3576,195.0331 65.7087,0 0,0"
                   inkscape:connector-curvature="0" /><path
                   id="path4273"
                   style="fill:#f15030;fill-opacity:1;fill-rule:evenodd;stroke:none"
                   d="m 1661.5013,1390.9124 938.6045,0 0,99.9762 -938.6045,0 0,-99.9762"
                   inkscape:connector-curvature="0" /></g></g></g></g></g></g></g></svg>